<?xml version="1.0" standalone="no"?>
<!DOCTYPE svg PUBLIC "-//W3C//DTD SVG 20010904//EN"
 "http://www.w3.org/TR/2001/REC-SVG-20010904/DTD/svg10.dtd">
<svg version="1.0" xmlns="http://www.w3.org/2000/svg"
 width="800.000000pt" height="702.000000pt" viewBox="0 0 800.000000 702.000000"
 preserveAspectRatio="xMidYMid meet">

<g transform="translate(0.000000,702.000000) scale(0.100000,-0.100000)"
fill="#000000" stroke="none">
<path d="M6310 6093 c-71 -20 -821 -46 -837 -29 -3 3 -44 2 -92 0 -81 -5 -150
-26 -160 -48 -2 -5 -20 -26 -40 -46 -83 -85 -121 -133 -121 -153 0 -31 -35
-118 -52 -131 -18 -14 -29 -54 -16 -62 10 -6 3 -51 -15 -94 -11 -29 -9 -201 2
-213 9 -9 26 6 51 42 8 11 20 21 26 21 6 0 17 7 24 15 7 8 25 15 40 15 32 0
135 50 123 59 -5 3 -10 19 -11 34 -2 26 0 27 14 13 8 -9 22 -16 29 -16 8 0 19
-9 25 -20 6 -11 17 -20 25 -20 8 0 15 9 15 20 0 11 5 20 10 20 6 0 10 -7 10
-15 0 -10 10 -15 33 -15 17 1 77 1 132 1 59 0 102 4 106 10 4 6 76 17 160 25
172 15 195 19 224 44 29 25 154 84 162 76 10 -10 83 65 83 86 0 10 4 18 9 18
4 0 25 16 45 35 21 19 46 35 56 35 13 0 17 5 14 15 -3 8 1 22 10 30 9 9 16 33
16 53 0 20 7 50 15 66 21 39 20 132 -1 140 -23 9 -53 6 -114 -11z m-950 -498
c10 -12 10 -15 -4 -15 -9 0 -16 7 -16 15 0 8 2 15 4 15 2 0 9 -7 16 -15z m75
-25 c7 -40 2 -60 -15 -60 -5 0 -8 18 -6 40 2 29 0 40 -10 40 -8 0 -14 5 -14
10 0 6 9 10 19 10 15 0 21 -10 26 -40z m-365 -110 c0 -5 -7 -10 -15 -10 -8 0
-15 5 -15 10 0 6 7 10 15 10 8 0 15 -4 15 -10z"/>
<path d="M0 5687 c0 -62 5 -94 19 -123 11 -22 23 -52 26 -67 4 -14 13 -31 21
-38 8 -6 14 -16 14 -22 0 -20 101 -146 153 -189 173 -149 417 -241 732 -278
50 -5 109 -15 133 -21 45 -12 61 -8 45 13 -6 7 -33 76 -61 153 -28 77 -53 147
-57 156 -4 11 -33 22 -83 33 -42 9 -104 23 -137 31 -33 8 -80 19 -105 25 -25
6 -54 14 -65 19 -11 5 -42 17 -70 26 -174 61 -352 169 -479 290 -44 41 -81 75
-83 75 -2 0 -3 -37 -3 -83z"/>
<path d="M3720 5691 c0 -5 -2 -16 -5 -24 -5 -10 1 -13 24 -9 26 4 29 7 20 23
-10 19 -39 27 -39 10z"/>
<path d="M3788 5635 c5 -11 20 -29 33 -40 22 -20 22 -20 11 0 -5 11 -20 29
-33 40 -22 20 -22 20 -11 0z"/>
<path d="M3687 5618 c-9 -31 -2 -33 11 -3 6 14 8 25 3 25 -5 0 -11 -10 -14
-22z"/>
<path d="M4098 5503 c17 -2 47 -2 65 0 17 2 3 4 -33 4 -36 0 -50 -2 -32 -4z"/>
<path d="M3585 5474 c-16 -16 -14 -20 32 -61 26 -24 57 -49 68 -54 11 -6 7 1
-10 15 -81 71 -86 78 -74 92 17 21 4 28 -16 8z"/>
<path d="M4020 5480 c-13 -8 -12 -10 3 -10 9 0 17 5 17 10 0 12 -1 12 -20 0z"/>
<path d="M4345 5471 c43 -11 123 -63 181 -119 8 -7 14 -10 14 -6 0 3 -15 21
-33 38 -19 18 -36 36 -38 41 -7 18 -93 55 -124 54 l-30 -1 30 -7z"/>
<path d="M3960 5449 c0 -5 5 -7 10 -4 6 3 10 8 10 11 0 2 -4 4 -10 4 -5 0 -10
-5 -10 -11z"/>
<path d="M7930 5384 c-135 -61 -398 -134 -480 -133 -25 0 -69 -3 -99 -8 l-55
-8 0 -50 c-1 -41 -7 -59 -33 -95 -18 -24 -33 -50 -33 -56 0 -7 -7 -17 -16 -22
-10 -6 -16 -25 -17 -59 -1 -27 -8 -58 -16 -67 -8 -9 -11 -20 -7 -23 4 -4 10
-2 15 5 5 8 34 11 92 10 50 -1 93 3 107 11 12 6 27 9 33 6 5 -4 17 -1 25 6 8
7 52 13 102 15 110 4 177 20 205 49 12 12 45 30 72 40 28 10 77 33 110 51 l60
32 3 161 c1 89 -1 161 -5 160 -5 0 -33 -11 -63 -25z"/>
<path d="M4080 5304 c0 -3 17 -22 37 -42 20 -20 29 -28 20 -16 -22 27 -22 51
1 57 9 3 0 5 -20 6 -21 0 -38 -2 -38 -5z"/>
<path d="M4213 5303 c9 -2 23 -2 30 0 6 3 -1 5 -18 5 -16 0 -22 -2 -12 -5z"/>
<path d="M3756 5274 c-9 -23 -8 -24 20 -24 34 0 134 -86 134 -115 0 -16 6 -21
22 -21 14 1 24 -6 26 -16 3 -14 -3 -18 -22 -18 -14 0 -26 5 -26 12 0 7 -6 5
-17 -4 -23 -20 -149 -30 -176 -14 -15 8 -21 8 -24 -1 -3 -9 -27 -13 -72 -13
-53 0 -72 -4 -84 -18 -21 -23 -21 -49 -1 -82 10 -17 13 -18 8 -5 -30 88 -25
90 218 99 111 4 218 7 236 6 39 -1 41 12 6 35 -15 10 -46 36 -69 60 -40 40
-158 135 -168 135 -3 0 -8 -7 -11 -16z"/>
<path d="M4307 5279 c7 -7 15 -10 18 -7 3 3 -2 9 -12 12 -14 6 -15 5 -6 -5z"/>
<path d="M4353 5249 c10 -6 31 -29 47 -51 17 -23 30 -37 30 -31 0 15 -70 93
-83 93 -7 0 -4 -5 6 -11z"/>
<path d="M1170 5234 c0 -13 85 -157 119 -201 40 -52 133 -131 188 -160 54 -28
212 -80 268 -88 84 -11 281 -34 298 -34 16 -1 18 4 12 32 -4 17 -13 45 -21 61
-8 16 -14 35 -14 41 0 7 -25 17 -57 23 -132 25 -214 44 -288 65 -74 21 -235
87 -277 113 -21 13 -42 24 -47 24 -6 0 -49 29 -96 64 -47 36 -85 63 -85 60z"/>
<path d="M3732 5220 c-7 -11 -12 -25 -12 -32 1 -7 8 0 16 15 18 33 14 46 -4
17z"/>
<path d="M4160 5211 c0 -6 4 -13 10 -16 6 -3 7 1 4 9 -7 18 -14 21 -14 7z"/>
<path d="M4190 5175 c0 -8 4 -15 10 -15 5 0 7 7 4 15 -4 8 -8 15 -10 15 -2 0
-4 -7 -4 -15z"/>
<path d="M4641 5154 c0 -11 3 -14 6 -6 3 7 2 16 -1 19 -3 4 -6 -2 -5 -13z"/>
<path d="M7113 5157 c-4 -8 -27 -24 -51 -37 -23 -13 -49 -34 -57 -47 -10 -14
-36 -28 -73 -39 -31 -9 -61 -20 -66 -25 -6 -5 -18 -9 -27 -9 -10 0 -30 -11
-44 -24 -15 -14 -40 -28 -56 -31 -16 -4 -31 -11 -34 -16 -4 -5 -18 -9 -32 -9
-15 0 -49 -6 -77 -14 -109 -30 -186 -46 -225 -46 -49 0 -73 -22 -95 -90 -9
-27 -16 -51 -16 -54 0 -17 337 15 372 34 10 6 30 10 46 10 38 0 144 42 214 85
31 19 62 35 70 35 23 0 88 60 88 81 0 25 17 59 30 59 17 0 60 51 60 70 0 10 5
22 10 25 6 3 10 17 10 31 0 17 -5 24 -20 24 -10 0 -23 -6 -27 -13z"/>
<path d="M4220 5140 c0 -5 5 -10 11 -10 5 0 7 5 4 10 -3 6 -8 10 -11 10 -2 0
-4 -4 -4 -10z"/>
<path d="M4265 5090 c10 -11 20 -20 23 -20 3 0 -3 9 -13 20 -10 11 -20 20 -23
20 -3 0 3 -9 13 -20z"/>
<path d="M158 5028 c53 -99 165 -219 257 -275 64 -40 165 -85 235 -106 30 -9
78 -23 107 -31 28 -9 69 -16 91 -16 21 0 63 -4 93 -10 68 -12 348 -19 355 -9
2 4 -19 56 -48 116 l-53 108 -105 13 c-213 25 -327 43 -395 62 -22 7 -62 18
-90 26 -120 33 -277 85 -358 118 -48 20 -92 36 -98 36 -5 0 -1 -15 9 -32z"/>
<path d="M3551 4914 c0 -11 3 -14 6 -6 3 7 2 16 -1 19 -3 4 -6 -2 -5 -13z"/>
<path d="M4198 4913 c7 -3 16 -2 19 1 4 3 -2 6 -13 5 -11 0 -14 -3 -6 -6z"/>
<path d="M7965 4893 c-11 -2 -39 -11 -61 -20 -24 -8 -58 -13 -79 -10 -21 3
-48 -1 -63 -9 -15 -8 -38 -14 -52 -14 -15 0 -31 -5 -38 -12 -7 -7 -12 -8 -12
-3 0 4 -8 1 -18 -9 -14 -12 -44 -18 -109 -21 -50 -3 -112 -12 -138 -19 -31
-10 -75 -13 -128 -10 -54 3 -90 0 -106 -8 -14 -8 -40 -45 -63 -93 -22 -44 -46
-92 -54 -107 -8 -14 -14 -28 -14 -31 0 -2 48 -7 108 -11 104 -6 255 3 397 24
39 6 92 12 118 14 32 3 56 11 71 25 13 12 40 22 66 25 65 6 113 30 152 76 19
22 40 40 46 40 8 0 12 29 12 90 0 50 -3 89 -7 89 -5 -1 -17 -3 -28 -6z"/>
<path d="M4028 4883 c12 -2 32 -2 45 0 12 2 2 4 -23 4 -25 0 -35 -2 -22 -4z"/>
<path d="M4641 4874 c0 -11 3 -14 6 -6 3 7 2 16 -1 19 -3 4 -6 -2 -5 -13z"/>
<path d="M3570 4866 c0 -8 4 -17 9 -20 5 -4 7 3 4 14 -6 23 -13 26 -13 6z"/>
<path d="M3898 4861 c-78 -8 -79 -16 -2 -16 42 0 65 4 69 13 2 6 1 11 -3 11
-4 -1 -33 -5 -64 -8z"/>
<path d="M2172 4820 c13 -24 47 -62 77 -85 49 -39 228 -135 252 -135 16 0 132
-59 153 -78 45 -42 72 -134 87 -303 14 -167 24 -238 40 -279 17 -42 95 -120
121 -120 17 0 18 8 12 155 -7 158 -3 180 28 133 34 -52 114 -301 127 -392 5
-36 12 -70 15 -75 4 -5 7 -40 7 -78 1 -107 2 -105 -23 -101 -16 2 -33 22 -58
70 -52 99 -94 145 -161 178 -59 29 -74 27 -63 -7 25 -76 105 -184 214 -286 85
-81 93 -94 79 -138 -6 -19 -10 -48 -10 -64 2 -42 -15 -59 -81 -80 -63 -21 -72
-32 -33 -40 14 -3 36 -7 50 -10 36 -8 41 -29 21 -91 -18 -59 -18 -58 -44 -45
-55 29 -116 43 -163 37 -48 -7 -49 -6 -55 22 l-6 29 -31 -16 -32 -16 29 -3
c28 -4 29 -4 22 -58 l-6 -54 44 0 c26 0 48 -6 56 -15 16 -19 63 -19 98 -1 15
7 53 21 84 31 46 15 55 20 43 29 -12 9 -13 21 -4 71 6 33 12 74 13 91 2 17 10
55 19 85 20 68 38 238 33 304 -2 28 -7 93 -11 145 -3 52 -10 104 -15 115 -5
11 -13 40 -19 65 -14 66 -35 133 -72 237 -18 51 -30 96 -25 100 11 11 219 19
286 11 60 -7 849 -8 813 -1 -21 4 -23 10 -23 64 l0 59 -57 -1 c-32 -1 -44 -4
-28 -6 72 -9 76 -12 73 -46 l-3 -32 -555 3 c-305 1 -564 4 -575 7 -18 4 -21
13 -23 62 -3 69 -23 145 -62 229 -35 74 -115 151 -197 189 -101 46 -336 137
-388 151 -27 7 -60 16 -73 19 l-22 7 22 -42z"/>
<path d="M3708 4831 c-26 -4 -51 -10 -55 -14 -4 -5 11 -5 34 -1 35 5 43 3 57
-17 15 -21 17 -21 14 -5 -2 13 6 24 22 33 l25 13 -25 -1 c-14 -1 -46 -5 -72
-8z"/>
<path d="M3600 4810 c0 -5 9 -10 21 -10 11 0 17 5 14 10 -3 6 -13 10 -21 10
-8 0 -14 -4 -14 -10z"/>
<path d="M4351 4790 c-31 -26 -17 -26 16 0 14 11 22 20 17 20 -5 -1 -20 -10
-33 -20z"/>
<path d="M6135 4805 c-5 -2 -50 -15 -100 -29 -49 -15 -99 -31 -110 -36 -11 -5
-58 -23 -105 -40 -200 -76 -288 -140 -335 -245 -14 -32 -23 -61 -20 -65 3 -5
1 -10 -5 -12 -13 -4 -40 -108 -40 -152 0 -19 -7 -39 -15 -46 -12 -10 -125 -11
-533 -5 -535 7 -574 9 -591 19 -5 4 -12 -3 -16 -14 -3 -11 -11 -20 -17 -20 -6
0 -9 -2 -6 -5 3 -3 194 -8 424 -10 705 -9 677 -7 666 -61 -6 -31 11 -31 28 1
32 60 56 14 45 -87 -15 -149 -17 -208 -6 -208 11 0 14 11 12 45 -2 20 -1 20
14 0 14 -18 16 -18 32 -2 9 9 17 31 18 49 1 24 7 34 21 37 25 4 44 20 44 37 0
10 -8 12 -30 8 -23 -5 -30 -3 -30 9 0 18 53 31 59 14 7 -19 28 122 30 203 1
41 6 93 12 115 6 22 14 57 20 78 22 88 63 129 165 163 27 9 69 25 94 36 25 12
61 28 80 37 64 29 169 103 195 136 33 45 33 61 0 50z m-445 -252 c-1 -20 -16
-31 -30 -22 -13 8 -13 10 0 19 18 12 30 13 30 3z m-165 -163 c3 -5 1 -10 -4
-10 -6 0 -11 5 -11 10 0 6 2 10 4 10 3 0 8 -4 11 -10z m-29 -340 c19 0 18 -16
-2 -24 -17 -7 -44 9 -44 26 0 6 7 7 16 4 9 -3 22 -6 30 -6z m-71 -180 c3 -5 1
-10 -4 -10 -6 0 -11 5 -11 10 0 6 2 10 4 10 3 0 8 -4 11 -10z"/>
<path d="M1357 4776 c15 -26 97 -110 138 -142 42 -32 126 -71 212 -98 66 -21
174 -38 433 -70 186 -24 342 -46 365 -52 32 -9 -84 71 -150 104 -91 46 -174
78 -235 92 -61 13 -133 31 -186 46 -28 8 -59 14 -69 14 -10 0 -41 7 -69 14
-95 27 -422 106 -440 106 -4 0 -3 -6 1 -14z"/>
<path d="M4007 4779 c7 -7 15 -10 18 -7 3 3 -2 9 -12 12 -14 6 -15 5 -6 -5z"/>
<path d="M4068 4743 c7 -3 16 -2 19 1 4 3 -2 6 -13 5 -11 0 -14 -3 -6 -6z"/>
<path d="M3800 4710 c6 -11 15 -20 20 -20 6 0 2 9 -7 20 -10 11 -19 20 -21 20
-1 0 2 -9 8 -20z"/>
<path d="M6910 4714 c-30 -7 -93 -20 -140 -29 -137 -27 -222 -46 -270 -61 -25
-8 -58 -14 -73 -14 -50 0 -208 -41 -372 -98 -93 -32 -164 -68 -225 -115 l-25
-20 30 6 c17 4 104 13 195 22 91 9 179 23 195 31 18 8 77 16 150 18 225 9 393
67 502 174 58 56 100 103 92 101 -2 0 -29 -7 -59 -15z"/>
<path d="M4500 4659 c0 -5 5 -7 10 -4 6 3 10 8 10 11 0 2 -4 4 -10 4 -5 0 -10
-5 -10 -11z"/>
<path d="M3891 4622 c31 -24 59 -34 59 -22 0 6 -6 10 -14 10 -7 0 -19 7 -26
15 -7 8 -19 15 -28 15 -10 0 -7 -6 9 -18z"/>
<path d="M4416 4601 c-4 -5 3 -7 14 -4 23 6 26 13 6 13 -8 0 -17 -4 -20 -9z"/>
<path d="M3968 4578 c5 -5 16 -8 23 -6 8 3 3 7 -10 11 -17 4 -21 3 -13 -5z"/>
<path d="M4368 4573 c7 -3 16 -2 19 1 4 3 -2 6 -13 5 -11 0 -14 -3 -6 -6z"/>
<path d="M4033 4550 c20 -13 23 -56 5 -63 -8 -3 -5 -6 5 -6 28 -1 20 73 -8 77
-18 2 -18 2 -2 -8z"/>
<path d="M4293 4550 c-13 -5 -23 -15 -23 -22 0 -8 3 -9 8 -3 4 6 18 16 32 22
29 14 15 16 -17 3z"/>
<path d="M470 4542 c0 -14 84 -88 150 -131 84 -55 179 -91 343 -130 120 -28
514 -48 535 -26 3 2 -20 44 -49 92 l-54 88 -140 7 c-297 14 -511 43 -757 104
-17 4 -28 2 -28 -4z"/>
<path d="M4313 4473 c9 -2 23 -2 30 0 6 3 -1 5 -18 5 -16 0 -22 -2 -12 -5z"/>
<path d="M4420 4469 c19 -5 41 -18 48 -27 6 -8 12 -11 12 -5 0 17 -25 33 -61
38 l-34 5 35 -11z"/>
<path d="M7765 4462 c-11 -2 -24 -8 -30 -12 -35 -27 -401 -70 -645 -75 -30 -1
-80 -2 -112 -3 l-56 -2 -52 -81 c-28 -44 -50 -82 -48 -85 2 -2 47 -4 100 -5
79 -2 100 1 113 15 16 16 19 16 36 0 16 -14 34 -16 141 -9 68 4 130 10 138 15
8 4 36 10 63 13 85 12 224 65 302 117 17 11 38 23 48 26 9 4 17 10 17 15 0 5
9 9 20 9 11 0 23 8 27 18 3 9 12 24 20 33 12 15 10 16 -24 16 -21 0 -47 -3
-58 -5z m-648 -108 c-3 -3 -12 -4 -19 -1 -8 3 -5 6 6 6 11 1 17 -2 13 -5z"/>
<path d="M1560 4432 c0 -4 20 -29 45 -56 81 -88 212 -153 345 -170 37 -5 439
-9 609 -7 42 1 43 2 27 19 -24 27 -115 71 -182 88 -91 23 -259 41 -359 38
-158 -4 -295 18 -427 71 -32 13 -58 20 -58 17z"/>
<path d="M6715 4363 c-11 -3 -25 -9 -32 -15 -6 -5 -33 -13 -60 -18 -26 -5 -68
-14 -93 -19 -25 -6 -140 -11 -255 -11 -263 -1 -396 -25 -516 -92 -80 -45 -62
-48 241 -47 153 0 283 -2 287 -4 11 -7 169 19 207 34 71 28 120 52 133 65 8 8
18 14 21 14 8 0 57 44 86 78 19 22 17 24 -19 15z"/>
<path d="M3850 4300 c0 -5 5 -10 11 -10 5 0 7 5 4 10 -3 6 -8 10 -11 10 -2 0
-4 -4 -4 -10z"/>
<path d="M3898 4273 c7 -3 16 -2 19 1 4 3 -2 6 -13 5 -11 0 -14 -3 -6 -6z"/>
<path d="M4270 4266 c0 -7 21 -10 62 -7 70 4 68 7 -9 14 -35 3 -53 0 -53 -7z"/>
<path d="M883 4106 c60 -36 112 -66 116 -66 4 0 28 -11 53 -24 119 -63 297
-106 442 -106 87 0 201 21 220 40 11 11 -6 37 -82 119 l-58 64 -47 -11 c-94
-24 -370 -12 -612 28 -152 25 -150 28 -32 -44z"/>
<path d="M1740 4124 c69 -90 222 -165 340 -167 30 -1 159 0 287 2 l231 3 -32
29 c-18 16 -60 42 -92 57 -67 33 -180 48 -444 57 -139 6 -226 15 -285 32 -18
5 -19 4 -5 -13z"/>
<path d="M4156 4125 c4 -8 8 -15 10 -15 2 0 4 7 4 15 0 8 -4 15 -10 15 -5 0
-7 -7 -4 -15z"/>
<path d="M4161 4074 c0 -11 3 -14 6 -6 3 7 2 16 -1 19 -3 4 -6 -2 -5 -13z"/>
<path d="M7400 4079 c-41 -4 -124 -13 -185 -19 -104 -11 -375 -7 -451 6 -25 5
-36 0 -60 -24 -46 -46 -109 -125 -109 -135 0 -28 205 -58 315 -46 93 9 221 40
214 51 -3 4 2 5 10 2 9 -3 37 4 63 16 27 12 62 27 78 34 77 34 204 101 221
119 4 4 1 6 -7 5 -8 -1 -48 -5 -89 -9z"/>
<path d="M6465 4069 c-16 -5 -131 -12 -255 -15 -147 -4 -247 -11 -290 -21 -74
-17 -159 -55 -183 -81 -15 -16 -9 -18 121 -22 264 -9 485 -6 490 8 2 6 12 12
22 12 33 0 105 39 155 84 l50 45 -40 0 c-22 0 -53 -5 -70 -10z m-175 -113 c0
-3 -4 -8 -10 -11 -5 -3 -10 -1 -10 4 0 6 5 11 10 11 6 0 10 -2 10 -4z"/>
<path d="M4456 4008 c-17 -37 -20 -38 -69 -39 -29 0 -45 -3 -37 -7 52 -23 63
-40 58 -86 l-5 -45 28 14 c36 19 59 19 87 -1 22 -15 22 -15 22 33 0 43 4 51
33 71 l32 22 -47 0 c-43 0 -47 2 -65 38 l-18 38 -19 -38z"/>
<path d="M5308 4023 c0 -10 -1 -25 0 -33 0 -8 -4 -18 -10 -21 -6 -4 -9 -12 -7
-18 2 -5 9 -7 15 -3 15 9 27 92 14 92 -5 0 -11 -8 -12 -17z"/>
<path d="M4161 3994 c0 -11 3 -14 6 -6 3 7 2 16 -1 19 -3 4 -6 -2 -5 -13z"/>
<path d="M5260 3895 c-17 -21 -8 -28 15 -11 11 8 14 15 8 19 -6 4 -16 0 -23
-8z"/>
<path d="M1970 3841 c0 -4 12 -19 28 -33 76 -72 189 -104 341 -94 59 3 131 10
161 15 122 20 140 24 140 27 0 10 -41 43 -62 49 -12 4 -28 12 -35 17 -7 5 -65
12 -130 14 -300 10 -443 12 -443 5z"/>
<path d="M1155 3823 c40 -36 112 -93 119 -93 3 0 23 -11 44 -23 96 -61 323
-104 482 -93 95 7 200 25 200 35 0 3 -17 24 -38 47 -20 22 -57 62 -81 88 l-43
48 -64 -16 c-83 -21 -393 -22 -497 -2 -148 29 -144 29 -122 9z"/>
<path d="M5233 3803 c-7 -3 -13 -17 -13 -33 0 -16 -4 -30 -9 -32 -5 -1 -13
-37 -18 -79 -9 -73 -8 -75 12 -71 17 3 20 9 17 34 -3 16 3 63 13 104 18 78 18
84 -2 77z"/>
<path d="M5752 3784 c-37 -16 -128 -81 -97 -69 41 16 102 27 166 32 78 5 142
-18 147 -54 3 -23 10 -23 152 -9 49 5 150 53 181 86 l26 28 -271 0 c-213 0
-278 -3 -304 -14z"/>
<path d="M6398 3711 c-31 -33 -53 -63 -48 -66 17 -11 11 -22 -11 -21 -33 1
-35 -22 -2 -29 15 -3 44 -11 64 -17 32 -9 192 -14 298 -9 85 4 307 80 359 124
12 10 11 13 -9 19 -19 6 -18 7 7 3 24 -3 39 3 65 26 l34 30 -45 -6 c-25 -3
-76 -10 -115 -15 -89 -12 -302 -11 -380 1 -33 5 -83 12 -110 15 l-50 6 -57
-61z m402 -41 c0 -5 -5 -10 -11 -10 -5 0 -7 5 -4 10 3 6 8 10 11 10 2 0 4 -4
4 -10z"/>
<path d="M5445 3679 c-53 -28 -62 -38 -31 -32 15 3 29 9 32 14 3 5 18 9 34 9
36 0 61 10 54 21 -9 15 -47 10 -89 -12z"/>
<path d="M2455 3634 c-49 -7 -122 -16 -162 -20 -40 -4 -70 -11 -67 -16 18 -29
90 -59 167 -69 93 -12 244 3 310 31 l39 16 -26 26 c-28 27 -94 49 -143 47 -15
-1 -68 -7 -118 -15z"/>
<path d="M5328 3623 c7 -3 16 -2 19 1 4 3 -2 6 -13 5 -11 0 -14 -3 -6 -6z"/>
<path d="M5926 3544 c-16 -30 -26 -57 -23 -60 2 -3 22 2 42 10 21 9 44 16 52
16 15 0 83 48 83 59 0 3 -24 7 -52 9 -29 2 -57 7 -63 12 -7 6 -21 -11 -39 -46z"/>
<path d="M1980 3554 c-147 -14 -266 -28 -272 -33 -12 -11 60 -53 132 -77 80
-27 187 -36 284 -24 90 11 98 20 51 62 -91 80 -94 81 -195 72z"/>
<path d="M5048 3543 c6 -2 18 -2 25 0 6 3 1 5 -13 5 -14 0 -19 -2 -12 -5z"/>
<path d="M4948 3513 c7 -3 16 -2 19 1 4 3 -2 6 -13 5 -11 0 -14 -3 -6 -6z"/>
<path d="M5418 3513 c7 -3 16 -2 19 1 4 3 -2 6 -13 5 -11 0 -14 -3 -6 -6z"/>
<path d="M6158 3464 c-72 -60 -73 -61 -59 -83 8 -12 12 -12 25 -2 9 7 13 18
10 23 -4 6 5 8 24 3 17 -3 39 -2 49 4 37 21 108 45 213 74 8 3 -7 7 -35 11
-27 4 -66 11 -86 16 -59 16 -71 12 -141 -46z"/>
<path d="M6497 3465 c3 -19 1 -35 -6 -39 -6 -4 -11 -13 -11 -19 0 -8 3 -8 8
-2 4 6 32 22 62 37 39 19 48 27 32 28 -12 0 -38 6 -57 14 l-33 14 5 -33z"/>
<path d="M4868 3483 c7 -3 16 -2 19 1 4 3 -2 6 -13 5 -11 0 -14 -3 -6 -6z"/>
<path d="M2441 3449 l-23 -9 23 -18 c64 -48 220 -69 308 -41 20 7 42 14 50 16
19 5 -15 23 -86 46 -57 19 -230 23 -272 6z"/>
<path d="M5228 3453 c7 -3 16 -2 19 1 4 3 -2 6 -13 5 -11 0 -14 -3 -6 -6z"/>
<path d="M5451 3445 c-1 -12 -6 -26 -12 -32 -7 -7 -4 -12 10 -16 22 -5 24 2
11 43 -7 21 -8 22 -9 5z"/>
<path d="M4698 3433 c7 -3 16 -2 19 1 4 3 -2 6 -13 5 -11 0 -14 -3 -6 -6z"/>
<path d="M5840 3406 c-5 -13 -14 -27 -19 -31 -6 -3 -11 -11 -11 -16 0 -5 11 2
25 16 14 14 30 25 35 25 5 0 7 7 4 15 -9 22 -23 18 -34 -9z"/>
<path d="M2265 3345 c-27 -7 -96 -21 -152 -31 -56 -10 -100 -21 -97 -25 2 -3
29 -18 59 -33 61 -28 195 -48 195 -28 0 8 20 9 63 6 66 -6 129 4 125 21 -2 6
-9 9 -15 9 -7 -1 -11 2 -8 6 5 8 -102 91 -114 89 -3 0 -28 -7 -56 -14z"/>
<path d="M4870 3356 c0 -2 7 -6 15 -10 8 -3 15 -1 15 4 0 6 -7 10 -15 10 -8 0
-15 -2 -15 -4z"/>
<path d="M5578 3353 c-10 -2 -18 -9 -18 -15 0 -6 10 -8 23 -4 12 3 28 6 35 6
6 0 12 5 12 10 0 10 -21 11 -52 3z"/>
<path d="M5120 3312 c0 -16 29 -63 49 -79 17 -15 77 -16 106 -2 15 7 12 8 -15
4 -58 -8 -93 7 -117 51 -13 21 -23 33 -23 26z"/>
<path d="M4890 3290 c-14 -4 -41 -9 -60 -10 l-35 -2 40 -8 c22 -4 48 -4 57 1
9 5 31 9 48 9 18 0 29 4 25 10 -7 12 -39 12 -75 0z"/>
<path d="M2770 3270 c-30 -3 -68 -12 -84 -19 l-29 -12 36 -19 c29 -16 57 -20
124 -20 83 0 203 24 203 40 0 25 -148 43 -250 30z"/>
<path d="M5871 3256 c-7 -8 -26 -18 -42 -21 -23 -5 -28 -11 -24 -25 4 -12 -1
-22 -12 -29 -15 -9 -11 -10 20 -11 20 0 37 5 37 11 0 6 6 9 14 6 11 -4 15 6
18 39 2 24 3 44 2 44 -1 0 -7 -6 -13 -14z"/>
<path d="M4833 3233 c-37 -5 -45 -23 -10 -23 12 1 45 7 72 15 l50 14 -40 -1
c-22 -1 -55 -3 -72 -5z"/>
<path d="M3948 3203 c7 -3 16 -2 19 1 4 3 -2 6 -13 5 -11 0 -14 -3 -6 -6z"/>
<path d="M2543 3183 c9 -2 25 -2 35 0 9 3 1 5 -18 5 -19 0 -27 -2 -17 -5z"/>
<path d="M2625 3180 c11 -5 29 -8 40 -8 16 0 15 2 -5 8 -34 11 -60 11 -35 0z"/>
<path d="M5070 3180 c0 -5 5 -10 10 -10 6 0 10 5 10 10 0 6 -4 10 -10 10 -5 0
-10 -4 -10 -10z"/>
<path d="M5708 3183 c12 -2 30 -2 40 0 9 3 -1 5 -23 4 -22 0 -30 -2 -17 -4z"/>
<path d="M4620 3176 c0 -2 7 -6 15 -10 8 -3 15 -1 15 4 0 6 -7 10 -15 10 -8 0
-15 -2 -15 -4z"/>
<path d="M5553 3173 c15 -2 39 -2 55 0 15 2 2 4 -28 4 -30 0 -43 -2 -27 -4z"/>
<path d="M2705 3150 c3 -5 11 -10 16 -10 6 0 7 5 4 10 -3 6 -11 10 -16 10 -6
0 -7 -4 -4 -10z"/>
<path d="M4898 3143 c6 -2 18 -2 25 0 6 3 1 5 -13 5 -14 0 -19 -2 -12 -5z"/>
<path d="M2240 3120 c-18 -12 -2 -12 25 0 13 6 15 9 5 9 -8 0 -22 -4 -30 -9z"/>
<path d="M3688 3123 c6 -2 18 -2 25 0 6 3 1 5 -13 5 -14 0 -19 -2 -12 -5z"/>
<path d="M4465 3121 c-3 -5 -1 -12 5 -16 5 -3 10 1 10 9 0 18 -6 21 -15 7z"/>
<path d="M5270 3115 c-19 -7 -45 -14 -57 -14 -27 -1 -29 -13 -8 -31 8 -7 15
-19 15 -27 0 -13 3 -13 25 1 13 9 33 16 45 16 11 0 20 5 20 10 0 6 9 10 20 10
15 0 20 7 20 25 0 29 -23 32 -80 10z"/>
<path d="M5611 3077 c-41 -23 -76 -47 -78 -54 -6 -18 70 -26 200 -18 119 6
212 28 201 47 -3 4 -11 8 -17 7 -11 -2 -44 9 -92 30 -91 41 -124 39 -214 -12z
m206 -43 c-3 -3 -12 -4 -19 -1 -8 3 -5 6 6 6 11 1 17 -2 13 -5z"/>
<path d="M3588 3093 c6 -2 18 -2 25 0 6 3 1 5 -13 5 -14 0 -19 -2 -12 -5z"/>
<path d="M3480 3060 c-30 -10 -49 -19 -42 -19 15 -1 112 30 112 35 0 6 -12 4
-70 -16z"/>
<path d="M4217 3060 c-6 -22 10 -38 23 -24 5 5 3 17 -4 27 -13 16 -14 16 -19
-3z"/>
<path d="M4325 3060 c3 -5 8 -10 11 -10 2 0 4 5 4 10 0 6 -5 10 -11 10 -5 0
-7 -4 -4 -10z"/>
<path d="M5098 3063 c6 -2 18 -2 25 0 6 3 1 5 -13 5 -14 0 -19 -2 -12 -5z"/>
<path d="M4600 3040 c0 -5 7 -10 16 -10 8 0 12 5 9 10 -3 6 -10 10 -16 10 -5
0 -9 -4 -9 -10z"/>
<path d="M3348 3013 c6 -2 18 -2 25 0 6 3 1 5 -13 5 -14 0 -19 -2 -12 -5z"/>
<path d="M3883 3013 c9 -2 23 -2 30 0 6 3 -1 5 -18 5 -16 0 -22 -2 -12 -5z"/>
<path d="M4520 3011 c0 -5 5 -13 10 -16 6 -3 10 -2 10 4 0 5 -4 13 -10 16 -5
3 -10 2 -10 -4z"/>
<path d="M5230 2993 c0 -10 4 -24 9 -31 7 -11 9 -11 14 2 7 19 -1 46 -14 46
-5 0 -9 -8 -9 -17z"/>
<path d="M3265 2990 l-30 -8 27 -1 c15 0 30 4 33 9 3 6 5 9 3 9 -2 -1 -16 -5
-33 -9z"/>
<path d="M1908 2983 c7 -3 16 -2 19 1 4 3 -2 6 -13 5 -11 0 -14 -3 -6 -6z"/>
<path d="M2645 2980 c-7 -12 2 -12 30 0 19 8 19 9 -2 9 -12 1 -25 -3 -28 -9z"/>
<path d="M4878 2983 c7 -3 16 -2 19 1 4 3 -2 6 -13 5 -11 0 -14 -3 -6 -6z"/>
<path d="M6765 2980 c-3 -5 1 -10 10 -10 9 0 13 5 10 10 -3 6 -8 10 -10 10 -2
0 -7 -4 -10 -10z"/>
<path d="M3940 2952 c0 -11 -3 -27 -6 -36 -4 -10 -1 -16 10 -16 12 0 14 7 9
33 -7 39 -13 48 -13 19z"/>
<path d="M1790 2940 c-26 -23 -15 -27 15 -6 11 7 29 16 40 19 16 4 15 5 -6 6
-14 0 -36 -8 -49 -19z"/>
<path d="M2576 2951 c-3 -4 6 -6 19 -3 14 2 25 6 25 8 0 8 -39 4 -44 -5z"/>
<path d="M3158 2953 c6 -2 18 -2 25 0 6 3 1 5 -13 5 -14 0 -19 -2 -12 -5z"/>
<path d="M4140 2956 c0 -2 7 -6 15 -10 8 -3 15 -1 15 4 0 6 -7 10 -15 10 -8 0
-15 -2 -15 -4z"/>
<path d="M5385 2952 c-17 -16 -90 -29 -113 -21 -21 8 -22 6 -22 -56 l0 -65 21
21 c11 11 18 27 15 35 -8 22 22 17 34 -6 13 -24 43 -26 65 -3 11 10 19 12 23
6 10 -15 151 -11 161 5 4 7 27 18 52 26 24 8 36 14 26 15 -9 1 -25 5 -35 11
-38 21 -213 46 -227 32z m30 -22 c-3 -5 -13 -10 -21 -10 -8 0 -12 5 -9 10 3 6
13 10 21 10 8 0 12 -4 9 -10z m125 -30 c0 -5 -5 -12 -11 -16 -12 -7 -31 15
-23 28 6 9 34 -1 34 -12z"/>
<path d="M6553 2953 c9 -2 23 -2 30 0 6 3 -1 5 -18 5 -16 0 -22 -2 -12 -5z"/>
<path d="M4001 2924 c0 -11 3 -14 6 -6 3 7 2 16 -1 19 -3 4 -6 -2 -5 -13z"/>
<path d="M4090 2930 c0 -5 5 -10 10 -10 6 0 10 5 10 10 0 6 -4 10 -10 10 -5 0
-10 -4 -10 -10z"/>
<path d="M2298 2843 c7 -3 16 -2 19 1 4 3 -2 6 -13 5 -11 0 -14 -3 -6 -6z"/>
<path d="M2720 2820 c-12 -8 -10 -10 8 -10 13 0 20 4 17 10 -7 12 -6 12 -25 0z"/>
<path d="M3403 2823 c9 -14 47 -24 47 -12 0 5 -4 9 -9 9 -5 0 -17 3 -27 7 -11
4 -15 3 -11 -4z"/>
<path d="M2208 2813 c7 -3 16 -2 19 1 4 3 -2 6 -13 5 -11 0 -14 -3 -6 -6z"/>
<path d="M3480 2780 c14 -10 27 -16 30 -13 6 6 -30 33 -44 33 -6 0 0 -9 14
-20z"/>
<path d="M2648 2783 c7 -3 16 -2 19 1 4 3 -2 6 -13 5 -11 0 -14 -3 -6 -6z"/>
<path d="M5261 2774 c0 -11 3 -14 6 -6 3 7 2 16 -1 19 -3 4 -6 -2 -5 -13z"/>
<path d="M3766 2751 c-3 -5 1 -11 9 -15 8 -3 15 -1 15 4 0 13 -18 22 -24 11z"/>
<path d="M1340 2702 l-65 -37 70 -6 c136 -13 350 -19 335 -9 -8 5 -60 10 -115
10 -128 0 -207 10 -202 24 2 6 18 21 37 34 51 34 13 24 -60 -16z"/>
<path d="M2398 2703 c7 -3 16 -2 19 1 4 3 -2 6 -13 5 -11 0 -14 -3 -6 -6z"/>
<path d="M3638 2703 c6 -2 18 -2 25 0 6 3 1 5 -13 5 -14 0 -19 -2 -12 -5z"/>
<path d="M2110 2673 c0 -5 28 -9 63 -10 57 -1 59 -1 22 7 -51 11 -85 12 -85 3z"/>
<path d="M2258 2673 c12 -2 30 -2 40 0 9 3 -1 5 -23 4 -22 0 -30 -2 -17 -4z"/>
<path d="M3170 2671 c0 -5 7 -14 15 -21 13 -10 15 -9 15 9 0 12 -6 21 -15 21
-8 0 -15 -4 -15 -9z"/>
<path d="M4078 2673 c7 -3 16 -2 19 1 4 3 -2 6 -13 5 -11 0 -14 -3 -6 -6z"/>
<path d="M1765 2643 c38 -2 75 -9 82 -14 13 -11 33 -4 33 12 0 5 -40 8 -92 7
-86 -2 -88 -2 -23 -5z"/>
<path d="M3100 2635 c0 -8 5 -15 10 -15 6 0 10 7 10 15 0 8 -4 15 -10 15 -5 0
-10 -7 -10 -15z"/>
<path d="M3478 2633 c7 -3 16 -2 19 1 4 3 -2 6 -13 5 -11 0 -14 -3 -6 -6z"/>
<path d="M3137 2550 c7 -49 21 -64 41 -44 15 15 14 18 -3 30 -10 8 -22 14 -26
14 -4 0 -10 8 -12 18 -2 9 -2 1 0 -18z"/>
<path d="M2865 2560 c3 -5 8 -10 11 -10 2 0 4 5 4 10 0 6 -5 10 -11 10 -5 0
-7 -4 -4 -10z"/>
<path d="M3795 2558 c-10 -6 -33 -15 -50 -19 -26 -6 -24 -7 18 -8 34 -1 47 3
47 13 0 8 6 17 13 19 6 3 8 6 2 6 -5 0 -19 -5 -30 -11z"/>
<path d="M2415 2550 c-3 -5 1 -10 9 -10 9 0 16 5 16 10 0 6 -4 10 -9 10 -6 0
-13 -4 -16 -10z"/>
<path d="M2305 2540 c-8 -13 35 -13 55 0 11 7 7 10 -17 10 -17 0 -35 -4 -38
-10z"/>
<path d="M2881 2524 c0 -11 3 -14 6 -6 3 7 2 16 -1 19 -3 4 -6 -2 -5 -13z"/>
<path d="M2970 2530 c0 -5 5 -10 10 -10 6 0 10 5 10 10 0 6 -4 10 -10 10 -5 0
-10 -4 -10 -10z"/>
<path d="M1786 2513 c-6 -14 -5 -15 5 -6 7 7 10 15 7 18 -3 3 -9 -2 -12 -12z"/>
<path d="M2700 2516 c0 -8 5 -18 10 -21 6 -3 10 1 10 9 0 8 -4 18 -10 21 -5 3
-10 -1 -10 -9z"/>
<path d="M2520 2480 c0 -8 8 -24 16 -35 16 -19 16 -19 9 5 -9 31 -25 50 -25
30z"/>
<path d="M3000 2459 c0 -5 5 -7 10 -4 6 3 10 8 10 11 0 2 -4 4 -10 4 -5 0 -10
-5 -10 -11z"/>
<path d="M3538 2453 c7 -3 16 -2 19 1 4 3 -2 6 -13 5 -11 0 -14 -3 -6 -6z"/>
<path d="M2820 2435 c0 -8 4 -15 10 -15 5 0 7 7 4 15 -4 8 -8 15 -10 15 -2 0
-4 -7 -4 -15z"/>
<path d="M3468 2423 c7 -3 16 -2 19 1 4 3 -2 6 -13 5 -11 0 -14 -3 -6 -6z"/>
<path d="M2541 2404 c0 -11 3 -14 6 -6 3 7 2 16 -1 19 -3 4 -6 -2 -5 -13z"/>
<path d="M1705 2389 c-4 -6 -5 -12 -2 -15 2 -3 7 2 10 11 7 17 1 20 -8 4z"/>
<path d="M2100 2390 c0 -5 5 -10 10 -10 6 0 10 5 10 10 0 6 -4 10 -10 10 -5 0
-10 -4 -10 -10z"/>
<path d="M3388 2393 c6 -2 18 -2 25 0 6 3 1 5 -13 5 -14 0 -19 -2 -12 -5z"/>
<path d="M5276 2374 c-3 -9 -6 -35 -6 -59 0 -24 -4 -47 -10 -50 -5 -3 -10 -22
-10 -41 0 -31 19 -51 21 -21 0 6 3 21 6 32 5 20 8 44 17 118 5 37 -7 51 -18
21z"/>
<path d="M2005 2351 c-33 -15 -84 -39 -112 -52 -29 -13 -53 -27 -53 -31 0 -5
8 -4 18 1 9 5 61 30 115 56 53 26 97 49 97 51 0 6 -1 6 -65 -25z"/>
<path d="M2550 2360 c0 -5 5 -10 10 -10 6 0 10 5 10 10 0 6 -4 10 -10 10 -5 0
-10 -4 -10 -10z"/>
<path d="M2354 2332 c14 -16 29 -22 55 -21 l36 1 -37 7 c-20 4 -45 14 -55 22
-16 12 -16 11 1 -9z"/>
<path d="M3255 2340 c-13 -6 -15 -9 -5 -9 8 0 22 4 30 9 18 12 2 12 -25 0z"/>
<path d="M1658 2315 c-25 -33 -23 -44 3 -17 11 13 19 27 17 31 -2 5 -11 -1
-20 -14z"/>
<path d="M3198 2313 c7 -3 16 -2 19 1 4 3 -2 6 -13 5 -11 0 -14 -3 -6 -6z"/>
<path d="M1790 2251 c0 -5 9 -7 20 -4 11 3 20 7 20 9 0 2 -9 4 -20 4 -11 0
-20 -4 -20 -9z"/>
<path d="M3006 2246 c-22 -10 -25 -14 -12 -19 9 -4 16 -14 16 -23 0 -9 7 -32
16 -52 36 -84 48 -103 62 -97 10 4 12 0 8 -10 -3 -9 -2 -13 4 -10 15 9 12 32
-5 39 -8 3 -15 11 -15 19 0 7 -12 37 -26 67 -21 43 -24 58 -15 77 12 26 8 27
-33 9z"/>
<path d="M1750 2230 c-13 -8 -13 -10 2 -10 9 0 20 5 23 10 8 13 -5 13 -25 0z"/>
<path d="M2898 2203 c7 -3 16 -2 19 1 4 3 -2 6 -13 5 -11 0 -14 -3 -6 -6z"/>
<path d="M1542 2144 c-13 -20 -20 -34 -15 -32 52 25 69 32 72 35 5 3 -20 33
-28 33 -3 0 -16 -16 -29 -36z"/>
<path d="M2688 2143 c6 -2 18 -2 25 0 6 3 1 5 -13 5 -14 0 -19 -2 -12 -5z"/>
<path d="M5214 2116 c-3 -14 -10 -26 -15 -26 -5 0 -9 -6 -9 -13 0 -19 -129
-177 -145 -177 -3 0 -24 -13 -47 -30 -22 -16 -49 -30 -60 -30 -10 0 -18 -4
-18 -9 0 -5 -21 -14 -47 -21 -173 -41 -156 -40 -728 -34 -719 9 -665 7 -665
22 0 6 -9 12 -20 12 -12 0 -34 7 -50 15 -18 9 -41 13 -57 9 -18 -3 -23 -2 -16
3 9 6 -8 22 -58 51 -38 24 -74 40 -79 37 -6 -3 -8 0 -5 7 7 20 -73 104 -87 90
-14 -14 66 -110 99 -118 13 -4 22 -9 19 -11 -17 -17 129 -96 168 -91 13 1 32
-4 43 -13 28 -25 171 -49 291 -49 71 0 112 -4 120 -12 9 -9 12 -8 12 5 0 18
43 21 260 16 52 -1 124 -1 160 -1 91 1 130 -6 130 -24 0 -13 2 -13 13 -2 10 9
39 13 98 11 104 -2 283 15 287 28 2 5 15 9 29 9 14 0 42 8 62 19 20 10 50 25
66 32 17 8 36 20 43 27 7 6 17 12 22 12 5 0 7 6 4 14 -4 10 0 13 14 10 21 -6
82 39 82 61 0 7 7 15 15 19 8 3 15 12 15 20 0 7 6 16 13 19 8 3 26 30 42 61
21 42 26 59 17 68 -8 8 -13 4 -18 -16z"/>
<path d="M2535 2109 c-13 -19 4 -22 37 -6 l33 17 -32 0 c-17 0 -35 -5 -38 -11z"/>
<path d="M2460 2090 c-13 -9 -13 -10 0 -10 8 0 22 5 30 10 13 9 13 10 0 10 -8
0 -22 -5 -30 -10z"/>
<path d="M2408 2083 c7 -3 16 -2 19 1 4 3 -2 6 -13 5 -11 0 -14 -3 -6 -6z"/>
<path d="M2087 2067 c-8 -22 -2 -23 63 -16 l55 6 -52 1 c-30 1 -53 7 -55 14
-3 8 -7 6 -11 -5z"/>
<path d="M2338 2063 c7 -3 16 -2 19 1 4 3 -2 6 -13 5 -11 0 -14 -3 -6 -6z"/>
<path d="M3793 1601 c-19 -16 -20 -20 -7 -25 19 -7 55 -7 37 1 -9 3 -10 10 -3
24 13 24 2 24 -27 0z"/>
<path d="M4437 1591 c-4 -16 3 -20 41 -25 69 -9 80 -7 49 10 -17 9 -39 13 -54
9 -15 -3 -22 -2 -19 4 4 5 2 12 -3 15 -5 3 -11 -3 -14 -13z"/>
<path d="M3710 1580 c-8 -5 -10 -10 -5 -10 6 0 17 5 25 10 8 5 11 10 5 10 -5
0 -17 -5 -25 -10z"/>
<path d="M4068 1563 c6 -2 18 -2 25 0 6 3 1 5 -13 5 -14 0 -19 -2 -12 -5z"/>
<path d="M4308 1563 c18 -2 45 -2 60 0 15 2 0 4 -33 4 -33 0 -45 -2 -27 -4z"/>
<path d="M4578 1553 c6 -2 18 -2 25 0 6 3 1 5 -13 5 -14 0 -19 -2 -12 -5z"/>
<path d="M3477 1418 c-7 -4 49 -7 123 -6 147 1 141 6 -13 10 -55 2 -104 0
-110 -4z"/>
<path d="M4735 1410 c-4 -6 6 -10 22 -10 22 0 25 2 13 10 -19 12 -27 12 -35 0z"/>
<path d="M4338 1403 c7 -3 16 -2 19 1 4 3 -2 6 -13 5 -11 0 -14 -3 -6 -6z"/>
<path d="M3291 1350 c-47 -18 -98 -57 -88 -66 3 -4 19 3 34 14 16 11 50 32 77
46 55 29 43 33 -23 6z"/>
<path d="M3120 1232 c-20 -6 -50 -33 -50 -44 0 -9 22 2 54 27 21 16 19 25 -4
17z"/>
<path d="M5190 1142 c0 -12 19 -26 26 -19 2 2 -2 10 -11 17 -9 8 -15 8 -15 2z"/>
<path d="M3165 1130 c28 -12 85 -12 85 0 0 6 -24 10 -52 9 -39 0 -48 -3 -33
-9z"/>
<path d="M3438 1133 c7 -3 16 -2 19 1 4 3 -2 6 -13 5 -11 0 -14 -3 -6 -6z"/>
<path d="M3565 1130 c-3 -5 -2 -10 4 -10 5 0 13 5 16 10 3 6 2 10 -4 10 -5 0
-13 -4 -16 -10z"/>
<path d="M3490 1126 c0 -9 30 -14 35 -6 4 6 -3 10 -14 10 -12 0 -21 -2 -21 -4z"/>
</g>
</svg>
